<svg width="18" height="16" viewBox="0 0 18 16" fill="none" xmlns="http://www.w3.org/2000/svg">
<path d="M13.2625 9.90476H3.53681L0.294922 12.9524V0.761905C0.294922 0.559835 0.380311 0.366042 0.532304 0.223157C0.684297 0.0802718 0.890444 0 1.10539 0H13.2625C13.4774 0 13.6836 0.0802718 13.8356 0.223157C13.9876 0.366042 14.073 0.559835 14.073 0.761905V9.14286C14.073 9.34493 13.9876 9.53872 13.8356 9.68161C13.6836 9.82449 13.4774 9.90476 13.2625 9.90476ZM17.3148 5.33333V16L14.073 12.9524H5.15776C4.94281 12.9524 4.73666 12.8721 4.58467 12.7292C4.43267 12.5863 4.34728 12.3925 4.34728 12.1905V11.4286H15.6939V4.57143H16.5044C16.7193 4.57143 16.9255 4.6517 17.0775 4.79459C17.2295 4.93747 17.3148 5.13126 17.3148 5.33333ZM5.31175 1.52381C4.60663 1.52381 4.0393 1.67619 3.60165 1.97333C3.1802 2.28571 2.96948 2.72 2.97759 3.3219L2.98569 3.34476H4.5499C4.55801 3.11619 4.63095 2.94095 4.77683 2.81905C4.92691 2.70205 5.11682 2.63984 5.31175 2.64381C5.56299 2.64381 5.77371 2.72 5.9196 2.85714C6.06549 3.0019 6.13032 3.2 6.13032 3.42857C6.13032 3.67238 6.07359 3.8781 5.94391 4.05333C5.83045 4.22857 5.66025 4.38095 5.44953 4.50286C5.03618 4.7619 4.75252 4.99048 4.59853 5.19619C4.43644 5.39429 4.34728 5.71429 4.34728 6.09524H5.96823C5.96823 5.85905 6.00065 5.66857 6.07359 5.53143C6.14653 5.39429 6.28431 5.25714 6.48693 5.13524C6.85164 4.95238 7.15152 4.73143 7.38656 4.42667C7.62159 4.1219 7.74316 3.80952 7.74316 3.42857C7.74316 2.84952 7.52434 2.38476 7.08668 2.0419C6.65713 1.69905 6.06549 1.52381 5.31175 1.52381ZM4.34728 6.85714V8.38095H5.96823V6.85714H4.34728ZM9.21012 8.38095H10.8311V6.85714H9.21012V8.38095ZM9.21012 1.52381V6.09524H10.8311V1.52381H9.21012Z" fill="black"/>
</svg>
