<svg width="23" height="21" viewBox="0 0 23 21" fill="none" xmlns="http://www.w3.org/2000/svg">
<path d="M13.6511 17C17.3627 17 19.2191 17 20.3716 15.828C21.5252 14.657 21.5252 12.771 21.5252 9C21.5252 5.229 21.5252 3.343 20.3716 2.172C19.2191 1 17.3627 1 13.6511 1H9.71398C6.00231 1 4.14598 1 2.99341 2.172C1.83984 3.343 1.83984 5.229 1.83984 9C1.83984 12.771 1.83984 14.657 2.99341 15.828C3.63613 16.482 4.49737 16.771 5.77691 16.898" stroke="#222121" stroke-opacity="0.7" stroke-width="2" stroke-linecap="round" stroke-linejoin="round"/>
<path d="M13.6509 17C12.4344 17 11.0938 17.5 9.87037 18.145C7.90381 19.182 6.92052 19.701 6.43626 19.37C5.952 19.04 6.04354 18.015 6.2276 15.966L6.26894 15.5" stroke="#222121" stroke-opacity="0.7" stroke-width="2" stroke-linecap="round"/>
</svg>
