<svg width="16" height="18" viewBox="0 0 16 18" fill="none" xmlns="http://www.w3.org/2000/svg">
<path d="M5.98904 7.6873L7.54872 6.34293C7.97519 5.97462 8.27493 5.49481 8.40948 4.9651C8.54404 4.43538 8.50726 3.87992 8.30387 3.37001L7.63876 1.6991C7.39027 1.07531 6.89834 0.564107 6.26318 0.269647C5.62802 -0.0248125 4.89743 -0.0803763 4.22025 0.114276C1.72825 0.831548 -0.187222 3.01069 0.402377 5.59833C0.790118 7.30065 1.5322 9.43744 2.93794 11.7108C4.34659 13.9897 5.95564 15.6729 7.33525 16.8561C9.41772 18.639 12.3948 18.1936 14.3102 16.5132C14.8237 16.0628 15.1352 15.4451 15.1814 14.7861C15.2275 14.1271 15.0048 13.4763 14.5586 12.9664L13.3387 11.5729C12.9708 11.1514 12.4773 10.8432 11.9216 10.6879C11.366 10.5326 10.7736 10.5372 10.2208 10.7012L8.20512 11.2982C7.68458 10.7928 7.22841 10.2321 6.84585 9.62735C6.4766 9.01576 6.18883 8.36371 5.98904 7.68593V7.6873Z" fill="black"/>
</svg>
