<svg width="20" height="18" viewBox="0 0 20 18" fill="none" xmlns="http://www.w3.org/2000/svg">
<path d="M9.86863 0C4.58121 0 0.294922 4.02943 0.294922 9C0.294922 13.9706 4.58121 18 9.86863 18C15.156 18 19.4423 13.9706 19.4423 9C19.4423 4.02943 15.156 0 9.86863 0ZM9.69566 2.25549C10.8574 2.25813 11.7908 2.60347 12.442 3.23547C13.0932 3.86746 13.3918 4.6437 13.398 5.42066C13.3899 6.23942 13.3234 6.61636 12.6231 7.60584C11.9229 8.59533 10.1623 10.0271 10.495 11.6345L9.15105 11.6125C8.55575 10.4865 8.70702 9.13194 9.1604 8.23536C9.61378 7.33878 9.95359 7.05067 10.3221 6.22156C10.6905 5.39245 9.8175 4.45576 9.02132 4.44945C8.22514 4.44313 7.92188 4.75215 7.67269 5.28111H6.58233C6.48815 5.22999 6.28506 5.17302 6.35209 4.2385C6.41914 3.304 8.53391 2.25285 9.69566 2.25549ZM9.76344 12.6826C10.6624 12.6826 11.3891 13.3668 11.3891 14.2119C11.3891 15.057 10.6624 15.7445 9.76344 15.7445C8.86451 15.7445 8.13666 15.057 8.13666 14.2119C8.13666 13.3668 8.86451 12.6826 9.76344 12.6826Z" fill="black"/>
</svg>
