<?xml version="1.0" ?><svg id="Home" viewBox="0 0 64 64" xmlns="http://www.w3.org/2000/svg"><defs><style>.cls-1{fill:#8bc4ff;}.cls-2{fill:#2e58ff;}</style></defs><title/><path class="cls-1" d="M59,26V58a4,4,0,0,1-4,4H40V46a4,4,0,0,0-4-4H28a4,4,0,0,0-4,4V62H9a4,4,0,0,1-4-4V26L32,2Z"/><path class="cls-2" d="M55,64H40a2,2,0,0,1-2-2V46a2,2,0,0,0-2-2H28a2,2,0,0,0-2,2V62a2,2,0,0,1-2,2H9a6,6,0,0,1-6-6V26a2,2,0,0,1,.67-1.49l27-24a2,2,0,0,1,2.66,0l27,24A2,2,0,0,1,61,26V58A6,6,0,0,1,55,64ZM42,60H55a2,2,0,0,0,2-2V26.9L32,4.69,7,26.9V58a2,2,0,0,0,2,2H22V46a6,6,0,0,1,6-6h8a6,6,0,0,1,6,6Z"/></svg>
