<svg width="16" height="18" viewBox="0 0 16 18" fill="none" xmlns="http://www.w3.org/2000/svg">
<path d="M13.9463 0H1.53596C1.20681 0 0.891152 0.118526 0.658413 0.329505C0.425673 0.540483 0.294922 0.826631 0.294922 1.125V16.875C0.294922 17.1734 0.425673 17.4595 0.658413 17.6705C0.891152 17.8815 1.20681 18 1.53596 18H13.9463C14.2755 18 14.5911 17.8815 14.8239 17.6705C15.0566 17.4595 15.1874 17.1734 15.1874 16.875V1.125C15.1874 0.826631 15.0566 0.540483 14.8239 0.329505C14.5911 0.118526 14.2755 0 13.9463 0ZM4.63855 13.5H3.39751V12.375H4.63855V13.5ZM4.63855 11.25H3.39751V10.125H4.63855V11.25ZM4.63855 9H3.39751V7.875H4.63855V9ZM4.63855 6.75H3.39751V5.625H4.63855V6.75ZM4.63855 4.5H3.39751V3.375H4.63855V4.5ZM12.0848 13.5H5.87958V12.375H12.0848V13.5ZM12.0848 11.25H5.87958V10.125H12.0848V11.25ZM12.0848 9H5.87958V7.875H12.0848V9ZM12.0848 6.75H5.87958V5.625H12.0848V6.75ZM12.0848 4.5H5.87958V3.375H12.0848V4.5Z" fill="black"/>
</svg>
