<svg width="19" height="16" viewBox="0 0 19 16" fill="none" xmlns="http://www.w3.org/2000/svg">
<path d="M4.39745 1.41256e-05C3.85827 -0.0013057 3.32411 0.0898755 2.82569 0.268315C2.32726 0.446754 1.8744 0.708931 1.49314 1.03977C1.11189 1.37061 0.809757 1.76359 0.604125 2.1961C0.398494 2.62862 0.293417 3.09214 0.294938 3.56001V12.44C0.293417 12.9079 0.398494 13.3714 0.604125 13.8039C0.809757 14.2364 1.11189 14.6294 1.49314 14.9603C1.8744 15.2911 2.32726 15.5533 2.82569 15.7317C3.32411 15.9102 3.85827 16.0013 4.39745 16H14.6307C15.1699 16.0013 15.704 15.9102 16.2024 15.7317C16.7009 15.5533 17.1537 15.2911 17.535 14.9603C17.9162 14.6294 18.2184 14.2364 18.424 13.8039C18.6296 13.3714 18.7347 12.9079 18.7332 12.44V3.56001C18.7347 3.09214 18.6296 2.62862 18.424 2.1961C18.2184 1.76359 17.9162 1.37061 17.535 1.03977C17.1537 0.708931 16.7009 0.446754 16.2024 0.268315C15.704 0.0898755 15.1699 -0.0013057 14.6307 1.41256e-05H4.39745ZM9.40862 1.71051C11.2035 1.71051 12.8266 2.31251 14.0637 3.43701C15.0035 4.28351 15.5313 5.18151 15.8015 6.36451C15.8943 6.75801 15.8943 7.83051 15.8067 8.27301C15.5198 9.68004 14.6314 10.9413 13.3193 11.8045C12.8514 12.112 11.7076 12.646 11.5244 12.646C11.4553 12.646 11.4501 12.586 11.48 12.3385C11.5371 11.9425 11.5907 11.862 11.8488 11.768C12.2596 11.62 12.962 11.1845 13.3913 10.8125C14.1418 10.1615 14.6748 9.34604 14.9338 8.45301C15.0957 7.90301 15.0743 6.68151 14.8975 6.11701C14.3391 4.31951 12.6463 2.92451 10.576 2.54901C9.97617 2.44251 8.88025 2.44251 8.27121 2.54901C6.17616 2.92451 4.44124 4.39051 3.91344 6.23451C3.77228 6.73651 3.77228 7.95851 3.91344 8.45851C4.26435 9.68001 5.17416 10.799 6.36516 11.466C6.59967 11.6015 6.88143 11.7395 6.99897 11.7815C7.25653 11.8775 7.31415 11.959 7.3614 12.3515C7.39136 12.594 7.38502 12.6615 7.31991 12.6615C7.27785 12.6615 6.96267 12.544 6.62905 12.406L6.59909 12.3855C4.69937 11.5755 3.4836 10.2035 3.03993 8.37751C2.93218 7.90601 2.91086 6.78401 3.01919 6.35151C3.29519 5.19001 3.82356 4.28401 4.70226 3.48201C5.96931 2.32251 7.59879 1.71051 9.41092 1.71051H9.40862ZM9.51406 3.58601C9.79892 3.58543 10.0832 3.60887 10.3628 3.65601C12.5034 4.07001 14.0182 5.92751 13.7237 7.77051C13.6068 8.51501 13.3129 9.12501 12.7909 9.69251C12.5327 9.97901 11.9053 10.4585 11.7946 10.4585C11.7762 10.4585 11.7583 10.276 11.7583 10.057V9.65301L12.0764 9.32251C13.2824 8.07001 13.1959 6.32001 11.8811 5.17451C11.3711 4.72651 10.7794 4.46301 10.0171 4.34401C9.52559 4.26351 9.42302 4.26351 8.90675 4.33851C8.12082 4.44801 7.51409 4.71051 6.97362 5.17451C5.65355 6.31001 5.56597 8.07001 6.7731 9.32251L7.09116 9.65301V10.0595C7.09116 10.2835 7.06984 10.463 7.04276 10.463C7.02202 10.463 6.84167 10.3565 6.64922 10.2235L6.62214 10.2155C5.98314 9.77301 5.41904 8.98901 5.18453 8.21801C5.04394 7.75201 5.04394 6.86951 5.19087 6.40551C5.57807 5.15301 6.64346 4.18151 8.11736 3.72601C8.43254 3.62951 8.98684 3.57751 9.50945 3.58551L9.51406 3.58601ZM9.41208 5.57801C9.65235 5.57801 9.88917 5.62001 10.0638 5.69801C10.4354 5.86751 10.7454 6.19251 10.8618 6.53651C11.219 7.58851 9.93468 8.51051 8.76962 8.03901H8.76097C8.21186 7.81751 7.91743 7.40101 7.91109 6.85901C7.91109 6.36951 8.22281 5.94501 8.76616 5.69501C8.93729 5.61701 9.17468 5.57751 9.41438 5.57751L9.41208 5.57801ZM9.40574 8.73201C10.1657 8.72951 10.7143 8.96351 10.9183 9.37751C11.0709 9.68751 11.0145 10.664 10.75 12.245C10.5731 13.349 10.474 13.6275 10.2285 13.8155C9.88917 14.0755 9.41208 14.149 8.95573 14.008H8.95342C8.40431 13.836 8.28677 13.604 8.05859 12.2445C7.79815 10.664 7.74053 9.68701 7.89438 9.37701C8.09489 8.96551 8.64113 8.73451 9.40631 8.73151L9.40574 8.73201Z" fill="black"/>
</svg>
