<svg width="21" height="27" viewBox="0 0 21 27" fill="none" xmlns="http://www.w3.org/2000/svg">
<path id="Vector" d="M0.258545 3.37505C0.258545 2.47993 0.621492 1.62148 1.26754 0.988531C1.91359 0.355585 2.78983 0 3.70348 0L17.4832 0C18.3969 0 19.2731 0.355585 19.9192 0.988531C20.5652 1.62148 20.9282 2.47993 20.9282 3.37505V26.1567C20.9281 26.3093 20.8857 26.459 20.8057 26.59C20.7256 26.7209 20.6108 26.8281 20.4734 26.9001C20.3361 26.9721 20.1814 27.0063 20.0258 26.999C19.8702 26.9917 19.7195 26.9432 19.5898 26.8587L10.5934 22.1083L1.5969 26.8587C1.46721 26.9432 1.31654 26.9917 1.16093 26.999C1.00533 27.0063 0.850614 26.9721 0.713276 26.9001C0.575937 26.8281 0.461114 26.7209 0.381037 26.59C0.300959 26.459 0.258625 26.3093 0.258545 26.1567V3.37505ZM3.70348 1.68753C3.24665 1.68753 2.80854 1.86532 2.48551 2.18179C2.16249 2.49827 1.98101 2.92749 1.98101 3.37505V24.5805L10.1162 20.3921C10.2576 20.2999 10.4236 20.2508 10.5934 20.2508C10.7631 20.2508 10.9291 20.2999 11.0705 20.3921L19.2057 24.5805V3.37505C19.2057 2.92749 19.0242 2.49827 18.7012 2.18179C18.3782 1.86532 17.9401 1.68753 17.4832 1.68753H3.70348Z" fill="#222121"/>
</svg>
